<?xml version="1.0" standalone="no"?>
<!DOCTYPE svg PUBLIC "-//W3C//DTD SVG 20010904//EN"
 "http://www.w3.org/TR/2001/REC-SVG-20010904/DTD/svg10.dtd">
<svg version="1.0" xmlns="http://www.w3.org/2000/svg"
 width="512.000000pt" height="512.000000pt" viewBox="0 0 512.000000 512.000000"
 preserveAspectRatio="xMidYMid meet">
<metadata>
Created by potrace 1.14, written by Peter Selinger 2001-2017
</metadata>
<g transform="translate(0.000000,512.000000) scale(0.100000,-0.100000)"
fill="#000000" stroke="none">
<path d="M903 4486 c-8 -13 -7 -2298 1 -2381 4 -38 11 -92 16 -120 5 -27 11
-61 14 -75 11 -70 54 -201 99 -305 143 -332 426 -623 775 -799 170 -85 380
-154 537 -173 118 -15 390 -8 485 12 14 3 37 7 51 10 169 31 420 138 594 252
419 276 679 696 730 1177 7 66 10 2394 3 2401 -6 7 -848 9 -854 2 -3 -2 -6
-533 -8 -1178 -1 -646 -6 -1187 -10 -1204 -12 -54 -38 -129 -58 -170 -50 -100
-177 -239 -279 -304 -78 -49 -212 -108 -268 -117 -7 -2 -36 -8 -64 -15 -140
-33 -335 6 -504 102 -209 118 -335 282 -384 499 -10 42 -13 328 -14 1218 -1
639 -5 1165 -8 1168 -9 10 -848 10 -854 0z"/>
</g>
</svg>
